<?xml version="1.0" standalone="no"?>
<!DOCTYPE svg PUBLIC "-//W3C//DTD SVG 20010904//EN"
 "http://www.w3.org/TR/2001/REC-SVG-20010904/DTD/svg10.dtd">
<svg version="1.0" xmlns="http://www.w3.org/2000/svg"
 width="423.000000pt" height="423.000000pt" viewBox="0 0 423.000000 423.000000"
 preserveAspectRatio="xMidYMid meet">
<metadata>
Created by potrace 1.11, written by Peter Selinger 2001-2013
</metadata>
<g transform="translate(0.000000,423.000000) scale(0.100000,-0.100000)"
fill="#000000" stroke="none">
<path d="M780 3476 c14 -18 13 -18 -9 -11 -20 6 -23 4 -18 -9 7 -19 3 -20 -25
-5 -16 9 -19 8 -13 -1 6 -10 1 -11 -18 -6 -15 3 -29 1 -33 -6 -4 -6 -3 -8 4
-4 6 3 14 1 18 -6 4 -7 4 -10 -1 -6 -11 11 -47 -11 -39 -24 5 -7 0 -9 -14 -6
-23 6 -31 -7 -9 -15 9 -4 8 -6 -2 -6 -11 -1 -11 -4 0 -18 12 -14 12 -16 0 -8
-11 6 -13 2 -8 -22 3 -17 1 -35 -6 -42 -6 -6 -7 -11 -3 -11 5 0 2 -8 -5 -17
-12 -15 -12 -16 1 -8 12 7 13 6 3 -6 -10 -12 -10 -18 0 -29 6 -7 7 -10 1 -7
-6 3 -11 -1 -11 -9 0 -8 5 -13 12 -10 7 2 10 -6 7 -26 -3 -19 1 -33 9 -39 10
-6 10 -9 2 -9 -7 0 -12 -11 -11 -25 1 -14 6 -25 10 -25 4 0 8 -5 8 -11 0 -5
-4 -7 -10 -4 -12 7 -13 -2 -11 -77 1 -42 -2 -58 -11 -58 -9 0 -9 -3 2 -10 13
-9 13 -10 0 -10 -9 0 -11 -3 -5 -8 15 -11 17 -32 3 -32 -9 0 -10 -3 -2 -8 17
-11 40 -57 24 -47 -8 5 -11 3 -8 -6 3 -8 0 -33 -7 -56 -10 -34 -10 -41 0 -36
9 3 13 -3 11 -21 -2 -13 0 -30 5 -37 9 -15 0 -41 -11 -34 -5 3 -12 0 -16 -6
-5 -8 -3 -9 6 -4 10 6 12 3 8 -13 -4 -12 -3 -22 1 -22 4 0 8 -7 8 -15 0 -8 -4
-12 -8 -9 -4 2 -7 -5 -6 -16 1 -11 5 -20 10 -20 4 0 6 -4 2 -9 -3 -5 -1 -13 5
-16 8 -5 7 -11 -1 -21 -6 -8 -9 -23 -6 -34 3 -11 1 -22 -3 -25 -9 -6 -8 -24 3
-42 4 -6 3 -14 -2 -17 -5 -3 -7 -19 -6 -36 1 -16 -2 -30 -7 -30 -7 0 -6 -5 1
-13 6 -8 8 -17 4 -21 -4 -4 1 -4 11 0 16 6 17 4 7 -14 -7 -12 -9 -22 -5 -22 3
0 1 -7 -6 -15 -10 -12 -9 -16 2 -20 18 -7 17 -37 -1 -59 -12 -14 -12 -16 1
-11 9 4 15 0 15 -9 0 -8 -3 -13 -7 -11 -4 2 -12 -6 -18 -19 -8 -17 -7 -23 3
-23 7 0 11 7 8 16 -4 13 -3 13 5 2 8 -11 10 -11 15 0 3 9 6 10 6 2 1 -6 -4
-15 -9 -18 -8 -5 -7 -12 2 -23 7 -10 8 -14 4 -10 -5 4 -15 3 -23 -4 -11 -9
-12 -7 -7 8 6 16 5 17 -7 6 -17 -16 -32 -16 -24 1 4 6 -1 3 -10 -8 -9 -11 -21
-19 -26 -17 -6 1 -8 -2 -4 -8 3 -6 12 -7 18 -3 9 5 9 3 1 -8 -6 -8 -10 -23 -9
-35 1 -16 -3 -20 -22 -16 -13 2 -23 8 -23 12 0 5 -13 3 -29 -3 -17 -6 -28 -15
-25 -19 3 -4 1 -8 -5 -8 -5 0 -12 6 -14 13 -4 9 -6 9 -6 -1 -1 -7 -6 -10 -11
-7 -6 3 -10 -1 -10 -10 0 -11 -5 -15 -14 -12 -9 4 -17 -2 -21 -14 -5 -16 -10
-17 -28 -7 -20 10 -21 10 -8 -5 9 -11 10 -17 2 -17 -6 0 -11 -10 -11 -22 0
-18 -2 -20 -9 -8 -6 8 -7 18 -4 24 3 5 1 6 -5 2 -6 -3 -9 -15 -7 -26 3 -13 -1
-17 -11 -13 -7 3 -11 9 -8 15 3 5 -3 4 -15 -4 -12 -7 -19 -19 -16 -25 2 -7 -3
-13 -12 -13 -13 0 -13 -3 -3 -16 11 -12 11 -15 -1 -12 -8 2 -16 9 -19 15 -4 9
-10 6 -18 -8 -8 -12 -9 -18 -3 -14 6 3 11 1 11 -4 0 -6 -4 -11 -10 -11 -5 0
-10 -7 -10 -15 0 -21 -12 -19 -33 5 -9 11 -22 20 -29 20 -10 0 -10 -2 1 -9 9
-6 10 -10 2 -16 -9 -5 -9 -10 -1 -20 8 -10 8 -15 0 -20 -6 -4 -17 1 -24 10
-12 16 -13 16 -19 1 -4 -9 -3 -16 2 -16 4 0 8 -6 9 -12 2 -23 7 -43 16 -56 4
-8 3 -11 -5 -10 -6 2 -14 -3 -17 -11 -3 -9 0 -11 9 -7 8 4 5 0 -5 -8 -19 -16
-19 -16 2 -16 12 0 22 5 22 10 0 6 6 5 14 -2 11 -10 11 -16 2 -28 -9 -13 -9
-13 5 -3 9 7 20 9 24 5 5 -4 5 -2 1 5 -3 6 -2 14 4 18 5 3 10 2 10 -3 0 -6 11
-9 24 -8 13 0 22 4 20 8 -2 3 -1 8 3 11 5 2 3 3 -3 1 -6 -1 -11 4 -11 12 0 8
4 14 8 14 5 0 6 6 3 14 -3 8 -1 17 4 20 5 3 8 -6 6 -20 -2 -21 0 -23 12 -13
13 11 19 5 14 -16 -1 -5 2 -6 7 -2 4 5 8 14 9 20 0 7 2 19 2 28 1 9 8 19 16
22 10 4 13 0 11 -14 -3 -16 -1 -18 9 -10 7 6 16 8 19 4 4 -3 7 -1 7 6 0 8 7
10 20 6 12 -4 20 -2 20 5 0 6 -5 8 -12 4 -9 -6 -9 -3 0 9 8 9 11 20 9 24 -3 5
6 10 19 11 14 1 23 -2 19 -7 -3 -6 4 -9 15 -8 18 1 24 10 21 30 0 4 3 7 9 7 5
0 10 8 10 18 0 14 2 15 10 2 5 -8 10 -10 10 -5 0 6 5 3 10 -5 7 -11 10 -11 10
-2 0 7 4 11 9 7 5 -3 12 -1 15 4 4 5 2 12 -4 16 -11 7 9 45 23 45 4 0 6 -4 3
-9 -3 -5 1 -12 10 -15 12 -5 15 -2 10 10 -4 10 -2 14 6 11 7 -2 12 -10 10 -17
-3 -11 0 -11 12 -1 8 7 13 18 10 24 -2 7 5 18 17 25 12 8 18 9 14 3 -3 -7 2
-11 15 -11 14 0 20 5 18 18 -2 12 3 17 20 16 13 0 21 4 18 11 -2 6 4 17 15 23
14 9 18 9 15 -1 -1 -6 -1 -9 1 -4 3 4 9 5 13 2 5 -3 12 0 16 6 4 7 3 9 -3 6
-6 -4 -13 0 -17 8 -3 8 -2 14 2 12 4 -1 8 3 9 8 1 6 -5 9 -14 7 -8 -2 -12 1
-9 7 3 5 -1 17 -10 25 -8 9 -11 16 -5 16 6 0 11 5 11 11 0 5 -4 7 -10 4 -6 -3
-10 3 -10 15 0 14 4 19 13 14 8 -5 8 -2 -2 9 -11 14 -11 17 0 17 11 0 11 2 -1
10 -12 8 -12 10 5 10 17 0 17 2 5 10 -8 5 -15 15 -16 22 0 16 16 39 25 34 9
-6 7 37 -2 51 -4 7 -3 14 2 17 5 3 7 14 4 24 -2 10 2 23 9 29 10 9 16 6 25
-13 6 -14 7 -21 1 -18 -19 12 10 -30 31 -45 11 -8 18 -18 15 -23 -3 -4 1 -8 8
-8 7 0 26 -14 41 -32 16 -18 26 -27 22 -20 -9 17 11 15 29 -4 12 -12 16 -12
16 -2 0 8 3 9 8 3 4 -6 14 -10 22 -10 8 1 20 -3 27 -8 7 -5 18 -5 24 -1 8 4 9
3 5 -4 -4 -7 -3 -12 3 -12 6 0 22 -11 36 -26 14 -14 30 -22 37 -18 6 4 8 3 4
-4 -3 -6 2 -17 12 -24 24 -17 41 -44 21 -34 -8 4 -5 0 5 -8 11 -9 16 -16 12
-16 -4 0 0 -7 8 -16 9 -8 19 -27 23 -42 3 -15 11 -30 17 -34 7 -5 6 -8 -3 -8
-10 0 -11 -3 -2 -14 9 -11 9 -15 -1 -19 -11 -4 -11 -6 0 -6 9 -1 10 -6 3 -19
-5 -10 -6 -24 -1 -32 8 -13 -6 -48 -25 -62 -6 -5 -6 -8 2 -8 8 0 8 -6 0 -24
-7 -13 -16 -22 -21 -19 -5 4 -6 1 -2 -5 4 -6 -1 -20 -11 -32 -10 -11 -18 -24
-18 -29 0 -4 -15 -22 -32 -40 -18 -18 -33 -30 -33 -27 0 3 -11 1 -25 -4 -14
-5 -27 -6 -30 0 -3 5 -17 7 -31 4 -14 -3 -23 -1 -20 5 3 5 -1 11 -9 15 -8 3
-15 10 -15 17 0 17 -40 69 -53 69 -7 0 -6 -4 3 -10 8 -5 10 -10 4 -10 -6 0
-19 10 -28 23 -8 12 -13 15 -10 6 3 -10 0 -20 -7 -25 -8 -4 -10 -3 -5 4 12 19
-19 14 -37 -6 -19 -21 -23 -37 -6 -26 8 4 8 0 0 -15 -7 -13 -8 -21 -2 -21 6 0
7 -7 4 -17 -4 -10 -2 -14 4 -10 8 5 20 -16 23 -40 1 -10 36 -39 43 -36 4 2 7
-3 7 -12 0 -9 4 -13 10 -10 5 3 10 1 10 -4 0 -6 9 -11 20 -11 11 0 20 -5 20
-11 0 -8 6 -7 17 2 14 12 16 12 8 0 -6 -11 -4 -13 8 -8 9 3 19 2 22 -4 4 -5
10 -7 15 -4 4 3 27 6 49 7 23 1 41 6 41 11 0 5 7 7 15 3 8 -3 19 2 24 12 6 9
11 13 11 9 0 -4 6 -2 14 5 8 7 12 16 9 20 -2 4 2 5 10 3 7 -3 19 5 27 19 7 14
17 23 22 20 5 -3 8 -2 7 3 -3 18 2 31 21 53 11 13 20 29 20 37 0 7 5 13 11 13
5 0 7 5 4 10 -3 6 -1 10 5 10 6 0 9 4 5 9 -3 5 -1 12 5 16 6 4 7 11 4 17 -4 6
1 17 11 25 11 7 13 13 7 13 -9 0 -10 5 -3 19 6 10 7 21 4 25 -3 3 0 6 8 6 11
0 11 2 -1 10 -13 9 -13 10 0 10 13 0 13 1 0 10 -8 5 -10 10 -5 10 6 0 10 13
10 29 0 16 -3 27 -7 25 -3 -2 -5 12 -3 31 2 20 -1 35 -7 35 -6 0 -8 9 -5 19 3
11 -1 22 -9 25 -7 3 -11 12 -8 20 3 8 -3 20 -14 27 -13 8 -17 19 -14 32 3 14
1 18 -6 13 -7 -4 -12 -2 -12 5 0 6 -8 18 -18 26 -9 8 -11 11 -4 8 7 -4 -10 17
-38 46 -28 29 -58 54 -66 55 -7 1 -21 9 -30 18 -8 9 -20 14 -25 11 -5 -4 -9
-1 -9 4 0 6 -9 11 -20 11 -10 0 -24 8 -30 18 -8 12 -13 13 -16 5 -3 -7 -10
-13 -15 -13 -6 0 -7 4 -4 10 3 5 0 7 -9 4 -8 -3 -25 5 -38 18 -13 13 -26 22
-30 21 -4 -2 -4 5 -1 14 4 10 2 14 -5 9 -7 -4 -10 1 -7 14 2 11 0 20 -6 20
-15 0 -10 42 9 64 16 20 16 20 -1 7 -15 -12 -17 -12 -11 3 3 9 12 16 20 16 8
0 14 6 14 13 0 14 31 34 60 39 8 2 17 6 20 10 3 4 19 -4 34 -17 16 -14 26 -25
21 -25 -4 0 -1 -7 6 -17 8 -9 13 -19 11 -22 -2 -3 2 -7 10 -9 9 -2 8 0 -2 7
-9 7 -10 11 -3 11 19 0 27 -21 12 -32 -12 -8 -11 -9 1 -5 8 2 26 0 39 -5 22
-8 23 -7 10 8 -13 16 -12 16 11 4 22 -12 24 -12 12 2 -10 13 -9 18 5 29 16 13
17 12 4 -3 -9 -12 -10 -18 -2 -18 12 0 13 3 15 50 0 17 -2 30 -6 30 -4 0 -4 7
-1 17 5 12 3 14 -7 8 -10 -6 -12 -4 -7 9 6 14 3 17 -9 12 -14 -5 -15 -4 -5 8
9 11 6 17 -16 32 -16 10 -32 19 -36 19 -4 0 -11 5 -15 10 -15 21 -110 29 -131
12 -12 -9 -13 -9 -7 0 5 9 2 11 -8 7 -9 -3 -16 -10 -16 -15 0 -5 -6 -8 -12 -6
-7 1 -12 -4 -10 -11 1 -8 -2 -11 -7 -8 -5 3 -20 2 -33 -3 -12 -6 -17 -10 -9
-10 17 -1 5 -16 -12 -16 -7 -1 -11 -6 -10 -13 2 -7 -3 -11 -10 -9 -6 1 -11 -4
-10 -10 2 -7 -2 -13 -8 -13 -5 0 -8 -4 -5 -9 3 -5 -1 -12 -10 -15 -8 -3 -13
-10 -9 -15 3 -5 0 -13 -6 -17 -8 -4 -9 -3 -5 4 4 7 3 12 -3 12 -6 0 -8 7 -5
15 4 8 10 12 16 9 5 -3 4 3 -3 14 -7 12 -17 18 -23 15 -5 -4 -6 -1 -1 8 12 18
14 49 3 43 -13 -8 -9 10 8 35 16 22 16 23 -5 12 -25 -14 -28 0 -5 23 10 10 11
16 4 16 -7 0 -10 7 -6 15 3 8 1 15 -5 15 -6 0 -7 6 -2 13 4 6 6 20 4 31 -1 10
1 16 7 13 5 -4 9 0 9 8 0 8 -5 11 -11 8 -6 -4 -5 1 3 11 9 10 11 20 5 24 -13
10 -10 67 5 85 9 12 9 17 0 23 -8 5 -9 3 -4 -6 5 -9 4 -11 -4 -6 -9 6 -9 11
-1 21 8 9 8 15 0 20 -6 3 -8 11 -4 16 9 15 11 69 3 63 -4 -2 -9 5 -12 17 -4
15 -2 17 6 10 9 -7 13 0 14 25 2 19 -1 34 -5 34 -4 0 -8 9 -8 19 0 11 4 17 8
15 4 -3 8 0 8 5 0 6 -6 11 -12 11 -9 0 -8 4 2 10 12 8 12 10 1 10 -11 0 -11 3
-1 15 7 9 8 15 2 15 -18 0 -23 33 -7 50 9 10 12 21 7 24 -15 9 -20 62 -8 77 6
8 20 21 31 29 18 14 19 14 7 -2 -9 -11 -10 -18 -2 -23 6 -3 8 -10 6 -14 -3 -4
-1 -13 5 -21 6 -10 9 -11 9 -2 0 6 5 12 11 12 7 0 18 8 26 18 8 9 12 12 9 5
-4 -6 -2 -14 4 -18 5 -3 10 0 10 8 0 10 8 13 25 9 14 -2 23 -7 21 -10 -3 -3 2
-11 12 -18 14 -10 20 -10 36 4 11 9 16 11 12 5 -4 -7 -2 -13 3 -13 6 0 11 5
11 11 0 5 5 7 10 4 6 -4 18 -1 27 7 9 7 14 8 11 3 -4 -6 -3 -17 2 -24 6 -10
12 -7 25 13 19 29 36 26 30 -4 -3 -17 -1 -19 13 -11 12 7 23 5 36 -7 11 -9 17
-12 13 -6 -3 6 5 16 18 22 21 10 23 9 19 -6 -5 -15 -4 -15 8 -2 18 20 49 25
42 7 -3 -8 2 -17 11 -21 9 -3 14 -2 11 2 -2 4 4 8 14 8 22 0 22 -15 0 -34 -8
-8 -10 -11 -4 -8 8 4 10 -7 9 -32 -2 -20 -4 -37 -5 -37 -1 0 -3 -8 -5 -17 -2
-11 3 -18 11 -18 9 0 12 5 8 12 -4 7 -3 8 5 4 9 -6 9 -11 0 -22 -6 -7 -12 -29
-13 -47 -2 -19 -6 -39 -10 -45 -4 -7 -3 -12 2 -12 5 0 8 -10 7 -22 -1 -13 0
-27 3 -33 11 -18 9 -43 -3 -39 -6 3 -11 -5 -12 -16 -1 -11 2 -20 6 -20 4 0 8
-7 8 -15 0 -8 -4 -12 -9 -9 -4 3 -8 0 -8 -5 0 -6 6 -11 13 -11 8 0 7 -4 -3
-10 -10 -6 -11 -10 -2 -10 15 0 16 -36 1 -46 -7 -4 -9 -22 -6 -45 3 -22 2 -39
-3 -39 -11 0 -2 -84 10 -88 14 -5 13 -29 -2 -38 -7 -5 -8 -2 -3 7 5 8 4 11 -1
6 -12 -12 -12 -30 1 -39 6 -5 5 -8 -3 -8 -10 0 -10 -4 2 -16 17 -17 22 -39 7
-29 -5 3 -3 -8 5 -25 9 -16 12 -35 8 -41 -4 -8 -3 -9 4 -5 8 5 12 -3 12 -24 0
-22 4 -29 13 -24 8 5 8 2 -2 -9 -7 -9 -10 -17 -6 -17 4 0 1 -8 -6 -17 -10 -11
-10 -14 -1 -9 6 4 12 3 12 -3 0 -5 -5 -13 -11 -17 -8 -4 -7 -9 2 -15 10 -6 10
-9 2 -9 -7 0 -10 -7 -7 -15 4 -8 11 -12 18 -8 6 3 8 3 4 -2 -4 -4 -3 -16 3
-26 9 -18 10 -18 28 -1 10 9 16 21 13 26 -3 5 2 6 12 3 12 -5 19 0 26 16 5 13
9 16 10 7 0 -9 6 -6 15 10 7 14 16 24 19 23 3 -2 9 -3 14 -2 4 1 18 0 32 -1
22 -2 23 0 10 16 -13 15 -13 16 -1 9 11 -6 13 -4 8 9 -4 10 -3 15 3 11 6 -3
10 5 10 19 0 14 5 26 10 26 6 0 10 -5 10 -11 0 -6 7 -8 16 -5 8 3 13 2 10 -3
-3 -5 1 -12 10 -15 10 -4 13 -2 8 6 -5 8 -2 9 9 5 9 -3 16 -3 15 1 -1 4 3 17
10 28 6 12 9 24 6 26 -3 3 2 8 11 12 11 4 14 2 9 -7 -5 -9 -3 -8 7 1 11 10 11
14 1 21 -10 6 -10 10 2 21 13 10 17 9 22 -4 3 -9 11 -13 17 -9 6 4 8 0 5 -8
-4 -10 1 -15 12 -15 15 0 16 4 9 18 -6 12 -6 18 0 18 6 0 8 7 5 15 -4 8 -1 15
5 15 6 0 11 -4 11 -10 0 -5 7 -6 17 -3 12 5 14 3 8 -8 -5 -8 1 -5 13 5 24 21
30 34 9 20 -7 -5 -4 -1 6 9 21 18 42 23 32 7 -7 -11 23 -3 41 11 6 5 15 5 19
1 5 -4 5 -1 1 6 -4 7 -2 20 6 29 7 9 8 14 2 10 -12 -7 -12 28 0 40 4 5 6 1 4
-7 -2 -8 3 -14 10 -12 8 1 11 -1 8 -6 -2 -4 4 -8 14 -8 13 0 16 4 10 11 -16
19 9 34 41 25 18 -6 31 -5 35 2 4 7 2 8 -4 4 -7 -4 -12 -2 -12 3 0 6 5 11 10
11 6 0 10 10 10 23 0 16 3 18 9 8 5 -8 14 -10 22 -5 10 6 10 3 -1 -12 -14 -17
-14 -18 2 -6 9 8 22 11 27 8 5 -4 13 -1 17 5 4 7 3 9 -4 5 -6 -3 -13 -2 -17 4
-3 5 -1 10 5 10 6 0 8 6 4 13 -4 6 2 3 14 -7 20 -17 22 -18 22 -2 0 9 4 14 10
11 6 -3 7 1 4 9 -3 9 -1 16 6 16 6 0 9 4 6 9 -4 5 5 8 18 7 18 -2 23 1 19 13
-5 13 -3 14 8 4 7 -7 17 -13 22 -13 4 0 5 6 0 13 -12 19 -12 38 0 30 7 -4 8 0
4 13 -5 14 -2 12 13 -6 12 -15 20 -20 20 -11 0 8 3 11 7 8 3 -4 13 -1 21 6 11
8 14 8 9 0 -4 -6 -3 -14 2 -17 5 -3 7 8 6 24 -2 26 0 28 16 20 24 -13 26 -13
32 10 3 13 10 18 21 14 9 -3 13 -11 9 -17 -3 -6 -1 -7 6 -3 6 4 9 11 6 16 -3
5 2 16 11 24 8 9 12 16 7 16 -10 0 19 20 30 20 5 0 5 -5 1 -11 -4 -7 -1 -10 7
-7 8 3 13 11 11 17 -1 7 4 22 13 34 13 19 15 19 15 4 0 -10 5 -15 10 -12 6 3
10 -1 10 -10 0 -9 4 -13 10 -10 6 3 10 2 10 -3 0 -6 9 -8 20 -5 14 4 20 0 20
-11 0 -9 7 -19 15 -22 8 -4 12 -11 8 -17 -3 -6 -1 -7 6 -3 6 4 8 13 4 19 -3 7
2 5 13 -4 21 -18 48 -15 38 4 -3 7 1 4 9 -6 9 -10 12 -28 9 -40 -5 -19 -3 -20
10 -9 13 10 18 10 24 1 5 -8 3 -9 -6 -4 -8 5 -11 4 -6 -3 4 -6 13 -9 21 -6 8
4 12 11 8 17 -4 6 -1 7 6 3 9 -6 8 -13 -6 -29 -10 -11 -12 -17 -6 -13 7 4 21
3 30 -3 13 -7 23 -5 35 5 12 12 18 12 24 3 4 -7 3 -10 -3 -6 -6 4 -10 -4 -10
-18 0 -14 3 -22 8 -19 5 3 9 0 9 -6 0 -6 11 -4 25 6 23 15 25 15 19 0 -3 -9 0
-24 7 -34 12 -15 12 -16 -2 -5 -13 10 -16 10 -16 0 0 -16 29 -18 39 -3 5 7 8
6 8 -4 0 -9 9 -16 19 -16 11 0 17 4 15 8 -3 4 -2 8 3 8 18 0 30 -16 28 -37 -1
-13 3 -19 8 -16 7 4 8 -1 3 -12 -7 -18 -6 -18 14 0 21 19 39 14 23 -7 -7 -9
-4 -18 9 -30 10 -10 18 -14 18 -10 0 4 9 8 20 9 11 1 20 -4 20 -13 0 -8 5 -14
11 -14 5 0 7 6 3 13 -6 8 -3 8 9 -1 9 -8 16 -17 15 -20 0 -4 0 -16 1 -27 1
-17 3 -18 11 -5 5 8 10 11 10 6 0 -5 9 -1 20 9 11 10 23 15 27 12 3 -4 0 -7
-7 -7 -7 0 -10 -3 -7 -7 4 -3 2 -12 -4 -20 -9 -10 -6 -13 15 -13 24 0 31 -10
27 -34 -1 -5 4 -4 13 3 12 10 16 8 22 -11 4 -13 7 -27 6 -31 -1 -5 2 -6 8 -2
6 3 7 11 4 17 -5 8 -1 9 11 5 11 -5 22 -1 31 10 11 14 14 14 12 3 -2 -8 -7
-18 -13 -22 -6 -5 -4 -12 5 -18 13 -9 13 -10 0 -10 -13 0 -13 -1 0 -10 9 -6
17 -5 22 3 5 8 8 4 8 -10 0 -14 6 -23 16 -23 8 0 13 4 10 9 -7 11 21 8 31 -4
4 -4 2 -5 -4 -1 -7 4 -13 2 -13 -3 0 -17 18 -13 29 7 9 14 10 11 11 -16 0 -38
20 -50 55 -34 22 10 23 9 20 -19 -3 -21 -1 -28 8 -22 18 11 38 13 31 2 -3 -5
-1 -9 4 -9 14 0 4 -34 -17 -57 -17 -19 -23 -124 -8 -139 4 -4 7 -34 7 -66 0
-41 3 -57 11 -52 8 5 8 1 0 -14 -8 -14 -8 -23 -1 -27 8 -5 7 -12 -2 -23 -10
-12 -10 -14 0 -8 11 7 15 -17 15 -96 0 -10 3 -18 6 -18 4 0 8 -12 9 -27 1 -15
7 -30 13 -34 8 -5 8 -8 0 -13 -7 -5 -5 -15 7 -34 9 -14 12 -23 6 -19 -7 4 -15
0 -18 -9 -9 -22 -8 -26 5 -18 8 4 8 1 2 -12 -11 -22 -11 -34 1 -52 4 -7 3 -19
-4 -27 -7 -9 -8 -15 -2 -15 5 0 13 -7 16 -16 3 -9 2 -12 -5 -9 -13 9 -8 -27 6
-37 6 -5 6 -8 -2 -8 -12 0 -12 -17 0 -37 6 -9 2 -13 -10 -13 -16 -1 -16 -2 2
-12 11 -6 23 -16 27 -22 4 -6 12 -12 18 -12 5 -1 11 -2 13 -4 9 -8 38 -6 44 2
4 7 1 8 -7 3 -8 -5 -11 -4 -6 3 4 6 13 9 20 6 7 -3 17 3 21 13 14 30 15 63 2
63 -8 0 -8 3 -2 8 16 12 15 44 -2 38 -9 -4 -11 -2 -6 6 10 18 11 48 1 48 -5 0
-6 5 -3 10 4 6 1 18 -7 27 -11 14 -11 16 1 8 11 -6 13 -1 9 24 -2 17 -1 31 2
31 4 0 6 11 4 25 -2 14 -6 36 -8 50 -4 29 5 38 28 29 14 -5 14 -9 4 -22 -10
-12 -10 -14 0 -8 6 4 12 3 12 -3 0 -9 49 -5 59 4 2 2 12 0 22 -6 11 -5 19 -6
19 -1 0 12 52 10 66 -2 6 -6 10 -22 9 -36 -1 -14 2 -31 8 -37 6 -9 5 -13 -3
-13 -9 0 -9 -4 -2 -12 5 -7 8 -23 6 -36 -3 -14 0 -21 6 -17 5 3 10 2 10 -4 0
-5 -5 -13 -10 -16 -8 -5 -8 -11 0 -20 8 -10 7 -14 -2 -18 -10 -4 -10 -7 -1
-14 7 -5 11 -25 10 -46 -2 -21 0 -40 5 -43 5 -3 6 -9 3 -14 -3 -5 0 -20 6 -34
10 -22 15 -24 27 -13 10 7 13 8 9 1 -4 -7 0 -14 7 -17 9 -4 17 1 19 11 4 16 5
15 6 -1 1 -15 4 -14 23 5 13 13 22 26 21 30 -2 5 2 8 9 8 6 0 8 3 5 7 -4 3 -1
13 6 21 10 13 9 14 -2 7 -11 -6 -13 -2 -9 19 3 14 1 26 -4 26 -6 0 -8 6 -5 14
3 8 1 17 -6 20 -8 3 -8 5 2 5 11 1 11 4 1 16 -10 12 -10 15 0 15 10 0 10 3 1
14 -9 11 -9 15 1 19 8 4 7 6 -4 6 -10 1 -18 6 -18 12 0 5 3 8 8 6 4 -3 7 8 7
23 0 15 -3 26 -6 24 -4 -2 -6 13 -5 34 2 33 5 37 32 39 50 4 68 9 72 21 2 6 9
9 15 6 7 -2 19 8 28 23 16 29 15 63 -2 63 -6 0 -7 5 -4 11 5 6 11 4 19 -7 10
-12 15 -14 20 -5 6 9 11 9 21 1 10 -8 13 11 14 101 2 88 -1 109 -11 103 -8 -5
-8 -1 2 11 9 11 10 16 3 11 -9 -5 -13 -1 -13 11 -1 17 -1 17 -11 1 -12 -21
-31 -24 -23 -4 3 8 0 17 -5 21 -6 3 -8 11 -5 17 4 7 2 8 -5 4 -6 -4 -8 -12 -5
-18 5 -7 2 -8 -6 -3 -7 4 -16 2 -21 -6 -8 -12 -11 -12 -18 1 -7 10 -6 17 2 22
9 6 8 8 -2 8 -10 0 -11 3 -2 14 9 10 8 15 -4 20 -8 3 -15 1 -15 -5 0 -6 -4 -8
-9 -5 -5 4 -12 0 -15 -6 -3 -7 -3 -3 0 10 3 13 1 22 -6 22 -6 0 -19 7 -28 16
-13 14 -17 14 -21 3 -11 -27 -36 -15 -37 16 -3 47 -3 48 -17 36 -16 -13 -28
-5 -21 13 5 13 -23 15 -43 3 -6 -4 -18 -4 -27 -1 -15 6 -15 7 0 19 14 9 14 14
4 20 -9 6 -11 4 -5 -5 5 -9 4 -11 -4 -6 -8 6 -9 12 -2 20 8 10 3 13 -22 12
-22 -1 -31 3 -29 13 2 9 -3 11 -14 7 -14 -5 -15 -4 -4 9 11 13 10 14 -4 9 -9
-3 -16 -10 -16 -15 0 -15 -17 -10 -24 7 -4 10 -2 13 6 8 7 -5 8 -3 4 5 -5 7
-14 10 -22 7 -7 -3 -16 0 -20 6 -4 7 -3 8 4 4 7 -4 12 -3 12 1 0 14 -38 34
-45 23 -3 -6 -13 -10 -22 -10 -11 0 -14 8 -11 30 5 32 -14 42 -29 15 -7 -12
-11 -11 -21 6 -8 12 -9 18 -4 15 6 -3 5 5 -1 19 -10 20 -13 22 -18 7 -5 -14
-7 -13 -14 7 -4 13 -10 20 -14 15 -3 -5 -19 -10 -36 -11 -19 -2 -25 1 -17 6
10 6 8 10 -10 15 -22 6 -22 7 -4 21 17 13 17 14 -5 13 -13 -1 -29 -5 -35 -10
-6 -4 -11 -2 -12 5 -7 52 -10 61 -26 63 -11 2 -16 -2 -12 -11 9 -24 -21 -5
-32 20 -9 19 -17 23 -37 19 -15 -3 -24 -1 -21 5 3 5 -1 12 -10 15 -12 5 -15 2
-10 -9 3 -9 2 -13 -4 -10 -6 3 -10 19 -10 35 0 24 -4 28 -25 25 -14 -1 -25 2
-25 6 0 5 -6 9 -14 9 -8 0 -17 4 -20 9 -8 12 27 8 37 -4 5 -6 7 -4 5 4 -6 20
-46 21 -61 2 -10 -12 -9 -13 2 -6 9 5 12 4 7 -3 -11 -18 -33 -3 -31 21 0 12
-3 30 -8 40 -8 18 -9 18 -30 0 -19 -16 -20 -16 -8 0 7 9 9 17 4 17 -6 0 -15
10 -22 23 -6 12 -9 14 -7 5 4 -13 1 -15 -12 -11 -9 4 -20 11 -25 17 -5 7 -12
5 -21 -7 -13 -16 -14 -16 -20 8 -4 14 -4 30 -1 35 3 5 0 12 -6 16 -7 4 -9 3
-6 -3 4 -6 -1 -14 -10 -17 -20 -8 -32 9 -25 37 4 17 1 19 -22 15 -14 -3 -29
-1 -33 5 -3 6 -1 7 5 3 7 -4 12 -2 12 3 0 14 -17 14 -25 1 -10 -17 -37 11 -32
32 3 10 1 15 -4 12 -5 -3 -12 2 -15 10 -5 12 -10 10 -29 -10 -23 -24 -45 -18
-28 9 20 31 6 43 -26 23 -11 -7 -13 -5 -8 7 10 27 -2 50 -19 36 -11 -9 -14 -8
-14 1 0 9 -7 8 -24 -3 -22 -15 -24 -15 -21 1 1 9 -3 23 -9 31 -8 11 -8 13 2 7
6 -4 12 -3 12 1 0 5 -9 14 -21 21 -12 8 -18 9 -15 3 4 -7 1 -8 -8 -5 -9 3 -12
12 -9 21 4 11 2 14 -6 9 -6 -4 -18 -2 -26 4 -12 10 -15 9 -15 -4 0 -9 -5 -16
-10 -16 -6 0 -9 3 -9 8 3 18 -2 45 -7 40 -3 -4 -18 -3 -33 2 -23 6 -28 5 -27
-9 1 -10 -5 -15 -16 -13 -10 2 -18 -3 -18 -9 0 -8 -7 -6 -18 4 -23 21 -28 21
-36 1 -3 -8 -2 -12 4 -9 14 9 12 -9 -2 -23 -14 -14 -32 -16 -23 -2 3 6 -1 7
-9 4 -9 -3 -16 -10 -16 -16 0 -5 -5 -6 -12 -2 -7 5 -9 2 -5 -8 6 -17 -8 -19
-30 -5 -12 7 -18 -10 -14 -35 2 -12 -13 -10 -26 3 -12 12 -37 3 -28 -11 3 -4
-2 -11 -11 -14 -10 -4 -13 -2 -8 7 6 9 5 9 -8 0 -8 -7 -18 -9 -22 -5 -4 4 -6
0 -4 -8 2 -8 8 -18 13 -22 6 -5 5 -8 -3 -8 -7 0 -11 -4 -8 -8 2 -4 1 -14 -5
-22 -6 -10 -9 -11 -9 -2 0 17 -26 15 -45 -4 -12 -13 -19 -13 -30 -4 -19 15
-34 5 -28 -19 3 -10 0 -22 -6 -26 -6 -3 -10 -1 -9 6 2 6 -3 14 -11 17 -8 2
-11 1 -9 -4 3 -5 -8 -19 -23 -32 -16 -13 -27 -17 -24 -9 4 8 0 14 -9 14 -8 0
-14 -5 -13 -11 1 -6 -6 -10 -15 -10 -10 1 -14 -4 -11 -12 3 -8 10 -11 16 -7 6
3 7 1 3 -5 -4 -7 -9 -22 -11 -33 -3 -12 -6 -24 -9 -26 -9 -10 -26 9 -27 30 -1
17 -2 18 -6 5 -2 -10 -9 -18 -14 -18 -6 0 -7 6 -3 13 4 7 3 9 -2 4 -12 -11
-13 -57 -1 -57 4 0 5 -5 2 -11 -5 -6 -12 -4 -20 8 -7 10 -11 22 -8 27 4 5 1 6
-6 2 -6 -4 -17 -3 -24 3 -10 7 -13 5 -14 -10 -1 -12 3 -17 10 -13 9 5 9 4 0
-6 -10 -10 -15 -11 -27 -1 -11 9 -16 9 -22 0 -4 -8 -3 -9 4 -5 7 4 12 3 12 -3
0 -5 -5 -13 -10 -16 -6 -4 -8 -10 -5 -15 3 -4 -2 -10 -10 -14 -9 -3 -15 0 -15
9 0 7 -4 16 -9 19 -5 4 -8 -5 -6 -19 2 -20 0 -23 -11 -14 -10 8 -14 8 -14 1 0
-6 -7 -9 -16 -5 -14 5 -15 3 -5 -15 9 -17 8 -20 -6 -18 -9 2 -19 8 -21 14 -2
6 -10 8 -18 5 -13 -5 -13 -7 -2 -14 11 -7 11 -9 -1 -9 -10 0 -11 -3 -3 -13 7
-8 8 -18 1 -27 -8 -13 -12 -12 -25 7 -14 20 -51 22 -38 2 3 -5 0 -9 -6 -9 -6
0 -8 -5 -5 -10 4 -6 1 -9 -7 -8 -7 2 -12 -3 -11 -9 2 -7 -2 -13 -7 -13 -6 0
-10 4 -10 9 0 5 -7 11 -14 14 -10 4 -13 1 -9 -9 3 -9 0 -14 -7 -12 -7 2 -15
-3 -18 -11 -3 -9 0 -11 8 -6 9 6 9 3 1 -12 -6 -11 -7 -23 -4 -27 3 -3 1 -6 -5
-6 -6 0 -17 7 -25 15 -13 13 -16 13 -21 -1 -3 -8 -2 -13 2 -10 5 3 9 -1 9 -9
0 -8 -5 -11 -11 -7 -6 3 -17 7 -24 8 -20 3 -24 10 -26 43 0 17 -5 31 -10 31
-4 0 -3 7 5 16 10 13 10 17 -2 25 -8 5 -9 9 -3 9 8 0 10 13 7 36 -4 26 -2 34
7 29 8 -5 7 -1 -1 13 -11 18 -10 24 6 44 11 12 13 17 5 11 -13 -10 -15 -3 -15
48 0 32 3 59 6 59 8 0 -1 83 -10 90 -3 3 -6 16 -7 29 -1 23 0 23 14 5 14 -18
14 -18 8 -1 -3 10 -6 23 -6 28 0 6 -3 8 -7 6 -5 -3 -8 8 -9 24 -1 18 3 26 10
22 6 -4 4 2 -4 13 -8 10 -11 16 -6 12 4 -4 14 -2 20 5 10 9 9 15 -4 30 -14 15
-15 23 -6 42 6 13 13 22 17 20 7 -5 5 27 -3 40 -6 11 -4 31 8 59 5 12 4 17 -3
13 -5 -3 -10 0 -10 8 0 8 5 11 11 8 7 -4 6 -1 -1 8 -17 21 -17 22 -4 47 9 17
9 22 -1 22 -8 1 -6 6 5 14 12 9 14 16 8 21 -6 3 -11 11 -11 16 0 6 5 7 12 3 7
-4 8 -3 4 5 -4 6 -12 9 -17 6 -5 -4 -9 -1 -9 6 0 8 -4 8 -15 -1 -10 -9 -15 -9
-15 -1 0 6 -7 11 -16 11 -8 0 -12 5 -8 11 4 8 0 8 -15 0 -11 -7 -21 -14 -21
-17 0 -3 6 -2 13 2 9 6 9 4 0 -6 -11 -12 -16 -11 -28 6 -13 16 -15 16 -13 2 2
-9 -1 -16 -7 -15 -5 1 -9 7 -9 13 1 12 -41 4 -67 -12 -7 -4 -9 -3 -6 3 4 6 0
14 -9 17 -8 3 -13 2 -10 -3 3 -5 -1 -11 -9 -15 -8 -3 -14 -2 -14 2 4 27 -1 34
-17 21 -13 -10 -17 -10 -25 2 -7 11 -9 10 -9 -6 0 -17 -2 -17 -10 -5 -6 10
-10 11 -10 3 0 -7 -5 -13 -11 -13 -5 0 -8 4 -5 9 3 5 -3 11 -15 14 -15 4 -18
2 -10 -7 8 -9 2 -12 -22 -11 -18 0 -39 5 -47 10 -21 13 -39 15 -46 4 -3 -5 0
-9 5 -9 6 0 11 -5 11 -12 0 -6 -11 -1 -24 11 -18 17 -26 19 -31 10 -6 -8 -4
-10 6 -4 12 8 12 6 0 -8 -14 -18 -22 -22 -20 -9 1 4 1 14 0 22 -1 13 -2 13
-11 0 -8 -12 -10 -12 -10 -1 0 10 -3 11 -13 3 -10 -9 -20 -7 -38 5 -23 16 -23
16 -9 -1z m-35 -67 c0 -18 -5 -23 -20 -21 -16 2 -17 1 -5 -7 17 -11 7 -27 -10
-16 -6 4 -8 14 -5 24 4 9 8 23 10 31 2 8 4 17 4 18 1 2 7 2 14 0 6 -3 12 -16
12 -29z m1659 -360 c-6 -11 -31 -12 -37 -1 -3 4 6 8 19 8 13 1 21 -2 18 -7z
m-1031 -374 c-3 -9 -8 -14 -10 -11 -3 3 -2 9 2 15 9 16 15 13 8 -4z m480 -136
c-8 -8 -13 -7 -18 2 -5 8 -4 10 3 5 7 -4 12 -2 12 5 0 7 3 9 7 6 4 -4 2 -12
-4 -18z m-63 -3 c0 -2 -7 -7 -16 -10 -8 -3 -12 -2 -9 4 6 10 25 14 25 6z
m-400 -60 c0 -3 -4 -8 -10 -11 -5 -3 -10 -1 -10 4 0 6 5 11 10 11 6 0 10 -2
10 -4z m-640 -227 c0 -5 -4 -9 -10 -9 -5 0 -10 7 -10 16 0 8 5 12 10 9 6 -3
10 -10 10 -16z m2946 -115 c18 -23 48 -28 40 -8 -3 8 0 11 10 7 8 -3 14 1 14
8 1 11 3 10 10 -1 5 -9 7 -28 6 -43 -2 -14 1 -24 5 -21 5 3 9 -1 10 -8 0 -10
2 -10 6 0 6 15 33 16 33 1 0 -5 -6 -7 -12 -3 -10 5 -10 4 -1 -6 8 -8 9 -20 3
-36 -6 -15 -6 -24 0 -24 6 0 10 -8 10 -18 0 -10 9 -24 20 -32 11 -8 20 -24 20
-37 0 -12 4 -24 10 -28 24 -15 -4 -30 -58 -31 -74 -1 -92 -6 -119 -29 -24 -21
-32 -41 -10 -29 8 5 8 2 -2 -9 -7 -9 -10 -17 -5 -17 11 0 -18 -20 -30 -20 -5
0 -3 7 4 15 9 11 9 15 1 15 -7 0 -9 5 -6 10 3 6 2 10 -4 10 -5 0 -8 9 -6 20 2
11 -1 20 -8 20 -8 0 -8 3 1 12 8 8 9 15 1 25 -7 7 -8 13 -4 13 4 0 2 7 -5 15
-10 12 -10 15 1 15 9 1 8 5 -5 15 -11 8 -15 15 -9 15 13 0 12 72 -2 83 -6 4
-4 11 5 17 10 6 11 10 3 10 -15 0 -13 21 2 32 7 5 6 8 0 8 -6 0 -11 9 -12 20
-1 11 2 20 7 20 4 0 6 9 3 20 -3 11 -2 27 1 37 7 18 6 18 72 -63z m-2545 -21
c13 -16 12 -17 -3 -4 -17 13 -22 21 -14 21 2 0 10 -8 17 -17z m2874 -169 c11
-18 12 -24 4 -18 -11 6 -12 5 -2 -8 7 -8 12 -17 10 -19 -1 -2 6 5 16 16 10 11
16 15 13 8 -4 -6 -2 -14 3 -17 5 -3 12 1 15 10 10 25 25 6 21 -26 -5 -34 8
-46 32 -30 16 11 16 11 1 6 -10 -3 -19 -2 -22 2 -2 4 6 9 19 10 15 1 28 -6 34
-17 8 -15 5 -20 -15 -30 -15 -6 -23 -7 -19 -1 6 9 -10 14 -42 13 -7 -1 -13 4
-13 9 0 6 -6 5 -15 -2 -11 -9 -15 -9 -15 -1 0 7 -4 10 -9 6 -14 -8 -41 23 -35
40 4 9 0 15 -7 15 -11 0 -11 3 1 10 13 9 13 11 0 20 -11 7 -11 10 -2 10 7 0
10 5 7 10 -14 23 4 8 20 -16z"/>
<path d="M1095 3260 c-3 -5 -1 -10 4 -10 6 0 11 5 11 10 0 6 -2 10 -4 10 -3 0
-8 -4 -11 -10z"/>
<path d="M2460 3131 c0 -6 4 -13 10 -16 6 -3 7 1 4 9 -7 18 -14 21 -14 7z"/>
<path d="M2205 2770 c-3 -5 -1 -10 4 -10 6 0 11 5 11 10 0 6 -2 10 -4 10 -3 0
-8 -4 -11 -10z"/>
<path d="M1935 2610 c-3 -5 -1 -10 4 -10 6 0 11 5 11 10 0 6 -2 10 -4 10 -3 0
-8 -4 -11 -10z"/>
<path d="M1650 2465 c0 -5 5 -17 10 -25 5 -8 10 -10 10 -5 0 6 -5 17 -10 25
-5 8 -10 11 -10 5z"/>
<path d="M3476 2273 c-6 -14 -5 -15 5 -6 7 7 10 15 7 18 -3 3 -9 -2 -12 -12z"/>
<path d="M1421 2184 c-1 -7 -8 -11 -17 -10 -9 0 -25 -14 -36 -32 -10 -18 -14
-31 -9 -28 5 3 12 -1 15 -10 4 -9 2 -13 -5 -8 -6 3 -3 -5 6 -20 9 -14 21 -23
26 -20 5 3 9 0 9 -7 0 -10 3 -10 12 -1 7 7 17 12 23 12 5 0 3 -5 -5 -10 -13
-8 -12 -10 3 -10 9 0 17 6 17 13 0 8 4 7 10 -3 8 -12 10 -10 10 9 0 21 2 22
18 10 13 -10 12 -8 -3 10 -11 14 -15 21 -8 18 14 -9 30 13 15 22 -5 3 -12 15
-14 26 -2 11 -10 19 -16 18 -7 -2 -12 2 -12 8 0 6 -6 9 -14 6 -8 -3 -17 -1
-20 6 -3 8 -5 9 -5 1z"/>
<path d="M3321 2173 c-1 -7 -8 -10 -16 -7 -8 3 -25 -5 -39 -19 -14 -14 -27
-23 -29 -21 -2 2 -4 -3 -4 -11 0 -8 5 -15 11 -15 6 0 5 -4 -2 -9 -11 -7 -11
-11 2 -23 8 -9 12 -18 9 -22 -3 -3 2 -8 11 -12 9 -3 13 -11 9 -17 -3 -6 -1 -7
5 -3 6 4 21 2 32 -4 15 -8 20 -8 20 1 0 7 3 9 6 6 12 -11 44 13 44 33 0 11 4
20 10 20 6 0 6 9 0 25 -5 14 -7 25 -5 25 3 0 -3 9 -12 20 -10 11 -23 20 -29
20 -7 0 -15 6 -17 13 -4 9 -6 9 -6 0z"/>
<path d="M2480 2154 c0 -14 -2 -16 -9 -6 -6 11 -9 10 -13 -5 -3 -10 -9 -27
-14 -37 -4 -11 -4 -17 2 -14 5 4 9 -4 10 -15 0 -12 4 -31 9 -41 7 -15 5 -18
-6 -12 -8 5 -8 2 2 -6 9 -7 15 -22 13 -33 -2 -10 1 -24 7 -31 5 -6 10 -24 11
-40 1 -16 7 -32 13 -36 6 -5 4 -8 -5 -8 -12 0 -13 -2 -1 -9 10 -6 11 -13 3
-27 -7 -13 -6 -25 7 -43 10 -16 11 -22 3 -17 -16 10 -13 -25 3 -36 6 -5 6 -8
-2 -8 -8 0 -9 -9 -3 -30 5 -16 6 -30 3 -30 -3 0 1 -8 8 -17 12 -15 12 -16 -1
-8 -12 7 -13 6 -4 -6 6 -8 10 -33 9 -56 -1 -33 2 -43 14 -44 11 0 12 -2 4 -6
-7 -2 -13 -11 -13 -18 0 -7 6 -15 13 -18 9 -3 9 -7 -1 -19 -10 -12 -10 -17 -1
-20 8 -3 9 -10 2 -23 -10 -21 7 -71 20 -58 4 3 7 1 7 -5 0 -7 7 -12 16 -12 9
0 12 -5 8 -12 -6 -10 -5 -10 8 -1 8 7 18 10 21 6 4 -3 7 -1 7 5 0 7 7 12 15
12 8 0 15 4 15 10 0 5 11 9 25 8 14 -1 25 -5 25 -9 0 -4 11 -6 25 -4 14 1 25
-2 25 -8 0 -6 3 -7 6 -4 4 3 16 1 27 -5 17 -9 19 -8 14 6 -5 12 -3 15 6 9 21
-13 39 -12 33 3 -3 7 -2 13 2 13 29 -5 55 28 56 70 1 19 26 27 27 9 1 -7 1
-16 0 -20 0 -5 4 -8 10 -8 5 0 8 -4 5 -9 -3 -5 1 -11 9 -15 8 -3 15 -13 15
-22 0 -10 3 -14 7 -11 3 4 11 0 17 -9 6 -8 21 -16 34 -17 12 0 22 -6 22 -12 0
-5 5 -3 10 5 8 12 10 12 10 1 0 -10 3 -11 14 -2 11 9 15 9 19 -1 4 -11 6 -10
6 0 1 7 5 11 10 7 5 -3 12 4 16 15 4 11 10 18 15 15 5 -3 11 4 15 15 4 11 11
18 16 15 5 -3 6 2 2 11 -4 10 -2 15 3 11 6 -3 17 9 26 28 9 20 11 32 4 28 -6
-4 -5 0 2 9 7 9 14 32 15 52 1 20 7 36 12 36 7 0 7 3 0 8 -14 10 -17 62 -3 62
7 0 6 5 -2 15 -7 8 -12 35 -13 60 0 25 -5 45 -10 45 -6 0 -6 5 0 13 11 14 11
27 0 44 -4 6 -2 15 4 19 8 5 9 3 4 -6 -5 -9 -4 -11 4 -6 6 4 8 12 4 19 -4 6
-7 24 -8 39 -1 15 -10 37 -21 49 -10 13 -13 19 -5 14 10 -5 12 -4 7 3 -4 7
-18 12 -32 12 -13 0 -24 5 -24 11 0 6 -7 3 -16 -5 -8 -9 -19 -14 -24 -11 -11
7 -28 -46 -22 -70 2 -11 5 -42 6 -70 0 -27 4 -55 9 -62 4 -6 2 -15 -4 -19 -8
-4 -7 -9 2 -15 12 -7 12 -9 0 -9 -9 0 -10 -4 -5 -12 5 -7 9 -22 9 -33 0 -11 4
-23 10 -27 6 -5 6 -8 0 -8 -11 0 -12 -61 -1 -78 3 -6 2 -13 -4 -17 -6 -4 -7
-11 -4 -17 4 -7 2 -8 -4 -4 -11 6 -17 -12 -13 -36 0 -5 -2 -8 -7 -8 -18 1 -28
17 -30 50 -2 19 -8 37 -14 41 -6 4 -8 14 -5 22 3 9 1 18 -6 21 -9 3 -8 5 1 5
10 1 10 6 1 22 -6 12 -7 19 -1 15 5 -3 12 1 16 9 3 8 0 17 -5 21 -6 3 -9 19
-7 35 3 16 0 31 -6 33 -7 3 -6 5 1 5 7 1 10 8 7 16 -4 8 -2 15 3 15 8 0 14 25
14 55 0 26 -9 47 -29 65 -12 12 -22 26 -23 33 0 7 -4 3 -9 -8 -8 -19 -9 -19
-9 -1 -1 15 -4 16 -16 6 -12 -10 -15 -10 -15 1 -1 10 -4 9 -14 -3 -7 -10 -16
-15 -19 -11 -4 3 -7 -4 -7 -16 0 -15 -4 -20 -12 -15 -7 4 -10 4 -6 -1 4 -4 2
-15 -5 -23 -6 -9 -7 -13 -1 -9 7 4 10 -4 9 -21 -1 -15 3 -30 9 -34 7 -5 6 -8
-4 -8 -12 0 -12 -2 -1 -9 9 -6 10 -11 2 -15 -10 -6 -12 -2 -11 19 1 3 -6 13
-15 21 -18 19 -20 38 -2 28 6 -4 -3 8 -20 26 -18 18 -30 37 -26 44 3 6 3 8 -1
4 -4 -3 -20 7 -35 23 -29 30 -48 39 -35 17 6 -9 3 -9 -9 0 -9 8 -22 10 -28 6
-7 -4 -9 -3 -6 3 4 6 0 13 -8 17 -8 3 -15 0 -15 -6 0 -6 -3 -8 -7 -5 -3 4 -15
0 -25 -9 -13 -13 -21 -14 -31 -5 -8 6 -16 8 -20 5 -3 -3 -3 4 0 17 5 17 3 20
-8 14 -12 -7 -12 -6 -1 7 9 11 9 18 3 23 -6 3 -10 16 -10 28 1 69 -45 126 -77
94 -4 -4 -13 -2 -21 4 -10 9 -13 7 -13 -7z m261 -329 c5 3 6 0 3 -8 -3 -8 2
-21 10 -29 11 -12 12 -18 3 -28 -8 -9 -8 -11 -1 -7 7 4 14 -3 16 -18 3 -14 1
-25 -4 -25 -5 0 -4 -10 3 -21 9 -17 8 -20 -2 -14 -9 6 -10 3 -4 -11 4 -10 7
-29 6 -41 0 -13 4 -23 10 -23 6 0 8 -7 5 -17 -4 -9 -1 -20 6 -25 10 -6 10 -8
1 -8 -9 0 -10 -7 -4 -24 9 -21 7 -23 -17 -21 -38 4 -72 16 -72 26 0 5 -6 9
-13 9 -16 0 -33 29 -32 55 0 11 -4 23 -10 27 -6 5 -5 8 3 8 9 0 10 5 2 19 -5
11 -7 27 -4 35 4 9 1 16 -6 16 -10 0 -10 3 0 15 10 12 10 15 0 15 -9 0 -9 4 1
17 12 14 12 15 0 9 -10 -7 -12 -3 -6 14 4 12 8 28 9 35 2 14 36 51 36 39 0 -5
5 -3 12 4 9 9 15 7 25 -8 8 -11 19 -18 24 -15z m169 -175 c0 -5 -2 -10 -4 -10
-3 0 -8 5 -11 10 -3 6 -1 10 4 10 6 0 11 -4 11 -10z m14 -146 c3 -8 2 -12 -4
-9 -6 3 -10 10 -10 16 0 14 7 11 14 -7z"/>
<path d="M1873 2149 c4 -13 1 -15 -15 -11 -13 3 -19 1 -15 -5 4 -6 -3 -13 -15
-16 -17 -5 -19 -9 -10 -20 7 -8 9 -17 5 -21 -10 -10 -12 -36 -3 -36 4 0 11 -7
14 -16 3 -8 2 -12 -4 -9 -6 3 -10 1 -10 -4 0 -6 5 -11 11 -11 6 0 9 -7 5 -15
-3 -8 -1 -15 5 -15 6 0 5 -8 -2 -21 -6 -12 -7 -19 -1 -15 11 6 10 -44 -2 -62
-8 -13 -46 -12 -46 3 0 5 -5 3 -10 -5 -8 -12 -10 -12 -10 -1 0 10 -3 11 -13 2
-10 -8 -17 -7 -25 1 -9 9 -12 9 -12 -1 0 -7 -5 -9 -10 -6 -6 4 -23 -7 -40 -23
-21 -22 -27 -35 -23 -52 5 -17 3 -21 -7 -15 -9 5 -11 4 -6 -3 4 -7 15 -12 24
-12 15 0 15 -2 2 -10 -11 -7 -11 -10 -2 -10 7 0 10 -5 7 -10 -4 -7 3 -9 20 -6
23 4 25 3 14 -10 -10 -12 -9 -13 5 -8 9 3 16 10 16 16 0 5 4 6 10 3 5 -3 19
-1 31 5 15 8 24 9 32 1 6 -6 16 -7 28 -1 22 12 27 5 24 -38 -1 -18 2 -35 6
-38 5 -2 5 -14 0 -26 -4 -12 -5 -37 -1 -55 5 -18 5 -33 1 -33 -4 0 -7 -9 -7
-20 0 -11 3 -20 6 -20 3 0 5 -19 5 -42 0 -26 5 -42 12 -41 6 1 9 -6 6 -17 -3
-12 0 -20 6 -20 7 0 9 6 5 13 -4 7 -3 9 2 4 5 -5 9 -14 9 -20 0 -5 6 -12 14
-15 8 -3 11 0 8 5 -3 5 6 9 21 9 17 -1 26 4 24 12 -1 8 2 11 7 8 5 -3 15 2 22
11 8 9 9 14 2 10 -8 -5 -10 4 -8 28 2 20 -1 35 -7 35 -6 0 -5 6 3 16 10 13 10
17 -1 24 -11 7 -11 11 -1 24 8 9 9 16 3 16 -11 0 -11 18 1 37 4 6 2 15 -4 19
-8 5 -9 3 -4 -6 5 -9 4 -11 -4 -6 -6 4 -8 13 -4 19 13 20 12 88 -1 80 -6 -4 0
5 14 20 14 15 32 27 40 28 11 0 12 2 2 6 -10 4 -9 8 4 17 13 10 14 15 4 21 -9
5 -11 4 -6 -3 4 -7 2 -12 -3 -12 -14 0 -14 13 1 28 9 9 9 12 -1 12 -7 0 -10 3
-8 8 3 4 -1 13 -9 20 -8 7 -14 9 -15 5 0 -4 -4 1 -9 12 -4 11 -6 31 -3 44 3
13 2 21 -3 18 -5 -3 -8 17 -7 44 0 27 -2 49 -6 49 -3 0 -7 12 -8 28 -2 54 -18
82 -49 86 -9 1 -20 9 -26 17 -8 11 -9 11 -5 -2z"/>
<path d="M726 2088 c3 -5 10 -6 15 -3 13 9 11 12 -6 12 -8 0 -12 -4 -9 -9z"/>
<path d="M2175 1995 c-22 -13 -43 -21 -47 -19 -4 2 -10 -1 -14 -7 -5 -8 -2
-10 7 -5 8 4 3 -2 -11 -14 -14 -12 -18 -19 -10 -15 8 4 5 -2 -8 -12 -18 -15
-20 -21 -10 -31 9 -9 9 -12 -2 -12 -12 0 -12 -2 -2 -9 8 -4 13 -11 13 -15 -4
-26 1 -46 9 -41 12 8 13 -5 0 -25 -5 -9 -5 -19 2 -27 6 -7 7 -13 3 -13 -4 0
-2 -7 5 -15 7 -9 8 -15 2 -15 -5 0 -9 -18 -8 -40 1 -22 0 -43 -3 -46 -9 -9 -9
-34 -1 -34 5 0 7 -13 5 -30 -2 -16 0 -30 5 -30 9 0 25 -40 22 -53 -1 -5 3 -5
9 -1 9 5 10 2 6 -9 -4 -11 -2 -14 9 -10 8 3 14 -1 14 -11 0 -9 7 -16 16 -16 8
0 13 -4 10 -8 -2 -4 7 -9 22 -10 14 -1 29 -8 34 -15 4 -6 8 -7 8 -2 0 14 43
14 52 1 5 -8 8 -7 8 1 0 7 10 10 23 7 13 -2 32 3 43 12 10 8 13 12 5 8 -10 -5
-12 -3 -7 5 5 7 14 10 22 7 10 -4 11 0 4 20 -6 14 -6 23 -1 20 5 -3 15 2 22
11 10 12 10 14 2 9 -9 -5 -13 0 -13 14 0 14 4 19 13 14 9 -6 9 -5 0 8 -7 8
-10 18 -6 21 3 4 1 7 -5 7 -6 0 -9 7 -5 17 4 10 2 14 -5 9 -6 -3 -13 -2 -17 4
-4 6 -11 8 -16 5 -5 -4 -9 2 -9 11 0 16 -1 16 -16 -2 -8 -10 -12 -13 -8 -5 5
11 3 13 -10 8 -10 -4 -20 -7 -22 -7 -2 0 -4 -7 -4 -15 0 -7 -7 -18 -16 -23 -9
-5 -15 -13 -14 -18 1 -5 -4 -10 -11 -13 -7 -2 -10 2 -6 12 4 11 0 14 -16 10
-16 -3 -18 -2 -9 5 12 8 12 12 0 23 -11 9 -13 24 -8 51 9 47 9 47 48 50 18 1
32 5 32 8 0 3 18 5 40 4 23 -1 38 1 35 4 -3 3 9 12 26 19 18 7 29 16 26 20 -4
3 -1 13 6 21 10 13 9 14 -3 7 -13 -8 -13 -7 -1 8 11 14 11 17 0 17 -9 0 -10 3
-4 8 13 9 17 32 6 32 -5 0 -8 8 -7 17 2 10 -5 31 -15 47 -10 16 -16 33 -13 38
3 5 2 8 -3 7 -21 -4 -32 2 -27 15 3 8 -3 16 -16 19 -14 4 -19 10 -14 18 5 9 2
10 -9 6 -10 -3 -17 -3 -17 1 0 4 -24 8 -53 8 -37 1 -63 -5 -92 -21z m108 -116
c28 -50 29 -48 -10 -43 -20 3 -39 7 -43 9 -6 4 -7 29 -1 42 2 3 52 -4 54 -8z"/>
<path d="M1494 1982 c6 -9 1 -11 -18 -8 -14 3 -29 0 -32 -6 -4 -7 -2 -8 4 -4
7 4 12 3 12 -2 0 -6 -7 -12 -15 -16 -8 -3 -15 -13 -15 -21 0 -9 -4 -14 -8 -11
-4 2 -8 -4 -8 -14 0 -10 5 -16 10 -13 5 4 7 -1 3 -9 -3 -9 0 -21 6 -28 9 -10
9 -11 -3 -4 -12 6 -11 2 3 -19 9 -14 17 -35 17 -47 0 -11 5 -20 10 -20 11 0 8
-30 -6 -64 -6 -15 -4 -18 7 -12 8 4 5 0 -5 -8 -15 -12 -16 -16 -5 -16 8 0 10
-3 4 -8 -12 -9 -15 -52 -3 -52 4 0 8 -5 8 -11 0 -5 -5 -7 -12 -3 -7 5 -8 3 -3
-6 8 -13 16 -64 16 -102 0 -10 8 -18 17 -18 13 0 14 -2 3 -9 -11 -7 -11 -10 0
-17 41 -26 59 -32 65 -22 5 7 2 8 -6 3 -8 -5 -11 -4 -6 3 4 6 13 9 21 5 9 -3
15 1 15 8 0 11 3 11 10 -1 8 -12 10 -10 10 8 0 16 4 21 13 16 9 -6 9 -5 0 7
-10 12 -10 18 -1 27 9 9 9 12 -1 12 -7 0 -11 6 -8 15 4 8 2 17 -4 21 -6 4 -5
12 3 22 8 9 8 13 2 9 -7 -4 -15 0 -18 9 -3 9 -2 12 5 9 12 -8 8 27 -5 36 -5 4
-5 13 0 20 5 8 7 22 6 32 -2 9 1 17 6 17 6 0 8 10 4 22 -4 16 -2 19 9 13 11
-7 12 -6 2 7 -7 8 -14 38 -15 66 -2 29 -7 52 -11 52 -4 0 -3 9 3 19 7 14 7 22
0 26 -6 4 -8 10 -5 15 3 5 1 11 -5 15 -6 4 -7 11 -4 17 4 6 2 8 -4 4 -6 -3
-13 3 -17 14 -3 11 -11 20 -16 20 -6 0 -7 -6 -3 -12 4 -7 -3 -4 -16 7 -13 11
-20 14 -16 7z"/>
<path d="M2635 1980 c-3 -5 -2 -10 4 -10 5 0 13 5 16 10 3 6 2 10 -4 10 -5 0
-13 -4 -16 -10z"/>
<path d="M3347 1927 c4 -6 1 -8 -8 -5 -15 6 -42 -16 -32 -26 4 -3 2 -6 -4 -6
-6 0 -10 -20 -9 -47 1 -27 -2 -53 -7 -60 -4 -6 -3 -14 4 -19 8 -5 9 -3 4 6 -5
9 -4 11 3 6 9 -5 9 -13 2 -26 -6 -11 -6 -21 -1 -24 5 -4 8 -18 6 -34 -1 -15 2
-30 9 -34 8 -5 7 -8 -3 -8 -11 0 -11 -3 -1 -15 10 -12 10 -15 0 -15 -9 0 -9
-4 -3 -12 6 -7 9 -21 8 -30 -2 -10 2 -18 8 -18 8 0 8 -3 2 -8 -15 -11 -17 -32
-3 -32 9 0 8 -4 -2 -10 -12 -8 -12 -10 -1 -10 11 0 11 -3 0 -17 -12 -15 -12
-16 1 -8 13 8 13 7 1 -8 -7 -10 -9 -17 -3 -17 11 0 11 -18 -1 -37 -5 -9 -2
-13 8 -13 9 0 14 -4 11 -8 -7 -12 6 -26 37 -40 23 -10 27 -10 21 0 -6 9 -3 9
9 -1 15 -12 21 -9 18 11 0 4 8 5 19 3 12 -2 17 1 14 10 -3 7 -1 16 4 19 7 4 7
19 0 43 -5 20 -8 47 -5 60 2 13 1 26 -3 28 -4 3 -6 19 -4 37 2 18 -1 35 -8 40
-9 5 -9 8 -1 8 12 0 12 17 0 37 -4 6 -4 18 -1 26 3 8 1 18 -5 21 -7 4 -7 15
-1 30 5 13 6 27 2 30 -15 15 -11 46 6 46 14 0 14 2 3 9 -13 8 -13 12 0 27 8
10 9 15 3 11 -7 -4 -11 2 -11 18 0 29 -28 59 -48 51 -8 -3 -14 0 -12 6 1 5 -6
12 -16 13 -10 2 -14 -1 -10 -8z"/>
<path d="M526 1751 c-3 -5 1 -11 9 -14 9 -4 12 -1 8 9 -6 16 -10 17 -17 5z"/>
<path d="M4221 1424 c0 -11 3 -14 6 -6 3 7 2 16 -1 19 -3 4 -6 -2 -5 -13z"/>
</g>
</svg>
